<svg width="173" height="47" viewBox="0 0 173 47" fill="none" xmlns="http://www.w3.org/2000/svg">
  <g clip-path="url(#clip0_565_1304)">
    <path d="M0 19.4773H24.9375L0 34.832V46.3529H28.1423V39.7809H3.27492L28.1423 24.4262V12.9053H0V19.4773Z"
      fill="#BBF9D9" />
    <path
      d="M55.033 32.4322C55.033 36.9928 51.7781 40.1792 47.1111 40.1792C42.4141 40.1792 39.1291 36.9928 39.1291 32.4322V12.9053H31.748V32.4322C31.748 41.0157 38.0675 47.0002 47.1111 47.0002C55.9745 47.0002 62.4141 40.8762 62.4141 32.4322V12.9053H55.033V32.4322Z"
      fill="#BBF9D9" />
    <path
      d="M80.461 0L73.0799 2.31017V12.9051H66.0293V19.4771H73.0799V34.0352C73.0799 42.3299 77.2562 46.3528 85.8591 46.3528H89.775V39.7807H85.8591C82.0233 39.7807 80.461 38.2074 80.461 34.3538V19.4771H89.775V12.9051H80.461V0Z"
      fill="#BBF9D9" />
    <path
      d="M116.665 32.4322C116.665 36.9928 113.41 40.1792 108.743 40.1792C104.046 40.1792 100.761 36.9928 100.761 32.4322V12.9053H93.3799V32.4322C93.3799 41.0157 99.6994 47.0002 108.743 47.0002C117.606 47.0002 124.046 40.8762 124.046 32.4322V12.9053H116.665V32.4322Z"
      fill="#BBF9D9" />
    <path
      d="M146.581 12.2578C141.403 12.2578 137.186 15.1455 135.043 20.0646V12.9051H127.662V46.3527H135.043V27.4731C135.043 22.4943 138.729 19.019 143.997 19.019C148.694 19.019 152.239 22.6536 152.239 27.4731V46.3527H159.62V26.4474C159.62 18.093 154.252 12.2578 146.581 12.2578Z"
      fill="#BBF9D9" />
    <path
      d="M168.113 46.8705C170.812 46.8705 173 44.6949 173 42.0112C173 39.3274 170.812 37.1519 168.113 37.1519C165.414 37.1519 163.226 39.3274 163.226 42.0112C163.226 44.6949 165.414 46.8705 168.113 46.8705Z"
      fill="#BBF9D9" />
  </g>
  <defs>
    <clipPath id="clip0_565_1304">
      <rect width="173" height="47" fill="white" />
    </clipPath>
  </defs>
</svg>